<?xml version="1.0" standalone="no"?>
<!DOCTYPE svg PUBLIC "-//W3C//DTD SVG 20010904//EN"
 "http://www.w3.org/TR/2001/REC-SVG-20010904/DTD/svg10.dtd">
<svg version="1.0" xmlns="http://www.w3.org/2000/svg"
 width="732.000000pt" height="732.000000pt" viewBox="0 0 732.000000 732.000000"
 preserveAspectRatio="xMidYMid meet">
<metadata>
Created by potrace 1.14, written by Peter Selinger 2001-2017
</metadata>
<g transform="translate(0.000000,732.000000) scale(0.100000,-0.100000)"
fill="#000000" stroke="none">
<path d="M200 3660 l0 -3660 1132 2 1133 3 0 1415 0 1415 30 1 c17 1 48 3 70
4 22 1 45 1 50 0 21 -4 127 0 136 6 5 3 9 2 9 -3 0 -6 183 -9 200 -2 3 1 10 0
15 -1 6 -1 30 -1 55 -1 56 1 53 1 215 1 74 0 141 0 148 0 6 0 72 0 145 -1 73
-1 135 1 138 4 3 3 12 3 20 0 21 -8 264 -9 264 -1 0 4 6 5 14 2 22 -9 306 -10
306 -1 0 5 5 5 10 2 6 -4 56 -6 110 -5 55 0 108 1 118 1 9 -1 55 -1 102 -1
105 1 94 1 163 -2 54 -2 57 -3 57 -27 -1 -15 1 -37 2 -51 2 -14 0 -27 -4 -30
-4 -3 -3 -22 1 -42 5 -20 6 -39 3 -43 -7 -7 -5 -193 3 -205 3 -6 2 -10 -2 -10
-7 0 -9 -54 -2 -86 1 -5 0 -13 -1 -19 -4 -20 0 -137 6 -146 3 -5 0 -9 -6 -9
-7 0 -9 -8 -4 -22 4 -13 7 -27 6 -33 -3 -22 -4 -131 -2 -140 5 -23 5 -40 -2
-45 -4 -3 -3 -22 1 -42 5 -20 6 -40 3 -43 -8 -7 -5 -113 3 -125 4 -6 2 -10 -2
-10 -7 0 -9 -54 -2 -86 1 -5 0 -13 -1 -19 -1 -5 -1 -32 0 -60 1 -63 1 -62 -1
-139 -1 -35 1 -68 4 -73 3 -5 2 -15 -2 -21 -4 -7 -5 -33 -1 -57 4 -25 3 -45
-2 -45 -5 0 -6 -10 -2 -22 4 -13 7 -27 6 -33 -3 -22 -4 -131 -2 -140 5 -23 5
-40 -2 -45 -4 -3 -3 -22 1 -42 5 -20 6 -40 3 -43 -8 -7 -5 -113 3 -125 4 -6 2
-10 -2 -10 -7 0 -9 -54 -2 -86 1 -5 0 -13 -1 -19 -1 -5 -1 -32 0 -60 1 -63 1
-62 -1 -139 -1 -35 1 -68 4 -73 3 -5 2 -15 -2 -21 -4 -7 -5 -33 -1 -57 4 -25
3 -45 -2 -45 -5 0 -6 -10 -2 -22 4 -13 7 -27 6 -33 -6 -58 -6 -138 0 -141 4
-3 3 -16 -2 -29 l-10 -25 1139 0 c1076 0 1139 1 1143 18 2 9 3 1655 3 3657
l-1 3640 -1141 3 -1142 2 9 -29 c4 -16 6 -32 3 -35 -6 -5 -8 -89 -3 -111 1 -5
1 -14 0 -20 -4 -24 -1 -196 5 -205 3 -6 2 -10 -2 -10 -7 0 -9 -54 -2 -86 1 -5
0 -13 -1 -19 -1 -5 -1 -46 0 -90 0 -44 1 -87 1 -95 -3 -80 -3 -106 -1 -115 1
-5 1 -14 0 -20 -4 -24 -1 -196 5 -205 3 -6 2 -10 -2 -10 -7 0 -9 -54 -2 -86 1
-5 0 -13 -1 -19 -1 -5 -1 -46 0 -90 0 -44 1 -87 1 -95 -3 -80 -3 -106 -1 -115
1 -5 1 -14 0 -20 -4 -24 -1 -196 5 -205 3 -6 2 -10 -2 -10 -7 0 -9 -54 -2 -86
1 -5 0 -13 -1 -19 -1 -5 -1 -46 0 -90 0 -44 1 -87 1 -95 -3 -80 -3 -106 -1
-115 1 -5 1 -14 0 -20 -4 -24 -1 -196 5 -205 3 -6 2 -10 -2 -10 -7 0 -9 -54
-2 -86 1 -5 0 -13 -1 -19 -1 -5 -1 -46 0 -90 1 -94 1 -85 -2 -155 -1 -30 1
-60 4 -66 4 -5 3 -16 -2 -24 -7 -11 -192 -14 -1175 -14 -641 -1 -1173 2 -1183
5 -16 6 -17 93 -17 1390 l0 1384 -1133 3 -1132 2 0 -3660z"/>
</g>
</svg>
