<svg xmlns="http://www.w3.org/2000/svg" viewBox="0 0 40 23">
	<style type="text/css">
		.st0{fill:#fff;}
		.st1{fill:#021f32;}
		.st2{fill:#0094d8;}
	</style>
	<g>
		<polygon class="st0" points="23.3,20.8 18.5,21.3 10.4,0.5 15.2,0"/>
		<polygon class="st0" points="28.2,9.3 23.4,9.7 27.5,20.5 32.3,20"/>
		<polygon class="st0" points="2.1,22.5 0,18.3 16,10 18.2,14.2"/>
	</g>
	<g>
		<polygon class="st1" points="16.3,10.4 16.3,10.4 18.2,14.2 16.2,15.2 16.3,15.6 18.6,14.5"/>
		<polygon class="st1" points="15.6,0.8 15.3,0 12.8,6.5 13.3,7.7"/>
		<polygon class="st1" points="28.6,10.3 28.2,9.2 25.6,15.5 26.3,17.2"/>
		<polygon class="st1" points="10.4,13 3.6,16.4 2.5,20 7.6,19.6 9.7,18.6 11.8,12.2"/>
		<polygon class="st1" points="20.7,14.3 18.4,21.3 23.2,20.6"/>
		<polygon class="st1" points="29.8,13.4 27.5,20.4 32.2,19.7"/>
	</g>
	<g>
		<polygon class="st2" points="10.1,0.5 3.3,18 0,18.3 0,23 6.5,22.4 15.3,0"/>
		<polygon class="st2" points="23.6,20.8 28.2,9.2 23,9.7 18.4,21.3"/>
		<polygon class="st2" points="32.8,20 40,1.6 34.8,2.1 27.6,20.4"/>
	</g>
</svg>